<svg id="图层_1" data-name="图层 1" xmlns="http://www.w3.org/2000/svg" xmlns:xlink="http://www.w3.org/1999/xlink" viewBox="0 0 500 500">
  <defs>
    <style>
      .cls-1 {
        fill: url(#未命名的渐变_49);
      }

      .cls-2 {
        fill: #f0f0f0;
      }

      .cls-3 {
        fill: #4a98e1;
      }
    </style>
    <linearGradient id="未命名的渐变_49" data-name="未命名的渐变 49" x1="37.14" y1="462.86" x2="463.86" y2="36.14" gradientUnits="userSpaceOnUse">
      <stop offset="0" stop-color="#4a72e2"/>
      <stop offset="1" stop-color="#4abde0"/>
    </linearGradient>
  </defs>
  <rect class="cls-1" x="0.5" y="-0.5" width="500" height="500" rx="125.09"/>
  <g>
    <rect class="cls-2" x="108" y="107" width="225" height="225" rx="30.84"/>
    <path class="cls-2" d="M302.16,332.5H138.84a31.38,31.38,0,0,1-31.34-31.34V137.84a31.38,31.38,0,0,1,31.34-31.34H302.16a31.38,31.38,0,0,1,31.34,31.34V301.16A31.38,31.38,0,0,1,302.16,332.5Zm-163.32-225a30.37,30.37,0,0,0-30.34,30.34V301.16a30.37,30.37,0,0,0,30.34,30.34H302.16a30.37,30.37,0,0,0,30.34-30.34V137.84a30.37,30.37,0,0,0-30.34-30.34Z"/>
  </g>
  <g>
    <rect class="cls-2" x="167.18" y="167.69" width="225" height="225" rx="30.84"/>
    <path class="cls-2" d="M361.34,393.19H198a31.38,31.38,0,0,1-31.34-31.34V198.53A31.38,31.38,0,0,1,198,167.19H361.34a31.38,31.38,0,0,1,31.34,31.34V361.85A31.38,31.38,0,0,1,361.34,393.19ZM198,168.19a30.37,30.37,0,0,0-30.34,30.34V361.85A30.37,30.37,0,0,0,198,392.19H361.34a30.37,30.37,0,0,0,30.34-30.34V198.53a30.37,30.37,0,0,0-30.34-30.34Z"/>
  </g>
  <path id="flash" class="cls-3" d="M219.68,327.23a3,3,0,0,1-2.91-3.72l14.42-57.67-27.85-13.92a3,3,0,0,1-.78-4.81l75-75a3,3,0,0,1,5,2.85l-14.42,57.67L296,246.55a3,3,0,0,1,.78,4.8l-75,75A3,3,0,0,1,219.68,327.23Z"/>
</svg>
